<svg xmlns="http://www.w3.org/2000/svg" width="32" height="32" viewBox="0 0 32 32" fill="none">
  <rect width="32" height="32" rx="8" fill="#071524"/>
  <path d="M10 16.5C10 14.0147 12.0147 12 14.5 12H17V14H14.5C13.1193 14 12 15.1193 12 16.5C12 17.8807 13.1193 19 14.5 19H17V21H14.5C12.0147 21 10 18.9853 10 16.5Z" fill="#1d64ec"/>
  <path d="M22 16.5C22 18.9853 19.9853 21 17.5 21H15V19H17.5C18.8807 19 20 17.8807 20 16.5C20 15.1193 18.8807 14 17.5 14H15V12H17.5C19.9853 12 22 14.0147 22 16.5Z" fill="#4d8af0"/>
  <rect x="13" y="15.5" width="6" height="2" rx="1" fill="white"/>
</svg>